# xmcd
#
# Track frame offsets: 
#        150
#        27517
#        47337
#        86022
#        106025
#        124862
#        158227
#        196217
#
# Disc length: 2854 seconds
#
# Revision: 2
# Processed by: cddbd v1.5.1PL0 Copyright (c) Steve Scherf et al.
# Submitted via: ExactAudioCopy v0.90b4
#
DISCID=5c0b2408
DTITLE=Tony Campise - First Takes
DYEAR=1990
DGENRE=Jazz
TTITLE0=I Got It Bad
TTITLE1=Goodbye Pork Pie Hat
TTITLE2=When Sunny Gets Blue
TTITLE3=I Love You
TTITLE4=How Insensitive
TTITLE5=Sometime Ago
TTITLE6=Prelude To A Kiss
TTITLE7=Seranade To A Cuckoo
EXTD=MillenniumMusicProjectFormat
EXTT0=
EXTT1=
EXTT2=
EXTT3=
EXTT4=
EXTT5=
EXTT6=
EXTT7=
PLAYORDER=
